<svg xmlns="http://www.w3.org/2000/svg" xmlns:xlink="http://www.w3.org/1999/xlink" width="192" zoomAndPan="magnify" viewBox="0 0 144 143.999998" height="192" preserveAspectRatio="xMidYMid meet" version="1.0"><defs><clipPath id="054d7b3a63"><path d="M 32.835938 36.175781 L 110.835938 36.175781 L 110.835938 107.8125 L 32.835938 107.8125 Z M 32.835938 36.175781 " clip-rule="nonzero"/></clipPath></defs><g clip-path="url(#054d7b3a63)"><path fill="#000000" d="M 69.199219 106.21875 L 33.199219 40.273438 C 32.695312 39.34375 32.714844 38.214844 33.253906 37.3125 C 33.792969 36.398438 34.777344 35.84375 35.835938 35.84375 L 107.835938 35.84375 C 108.898438 35.84375 109.875 36.398438 110.414062 37.3125 C 110.695312 37.777344 110.835938 38.3125 110.835938 38.839844 C 110.835938 39.335938 110.707031 39.828125 110.460938 40.273438 L 74.460938 106.21875 C 73.945312 107.183594 72.933594 107.78125 71.835938 107.78125 C 70.738281 107.78125 69.722656 107.183594 69.199219 106.21875 Z M 69.199219 106.21875 " fill-opacity="1" fill-rule="nonzero"/></g></svg>