<svg xmlns="http://www.w3.org/2000/svg" xmlns:xlink="http://www.w3.org/1999/xlink" width="192" zoomAndPan="magnify" viewBox="0 0 144 143.999998" height="192" preserveAspectRatio="xMidYMid meet" version="1.0"><defs><clipPath id="11edc56429"><path d="M 29.839844 37.507812 L 113.839844 37.507812 L 113.839844 106.507812 L 29.839844 106.507812 Z M 29.839844 37.507812 " clip-rule="nonzero"/></clipPath></defs><g clip-path="url(#11edc56429)"><path fill="#000000" d="M 71.839844 87.339844 L 87.113281 72.007812 L 75.660156 72.007812 L 75.660156 37.507812 L 68.023438 37.507812 L 68.023438 72.007812 L 56.570312 72.007812 Z M 106.199219 37.507812 L 83.292969 37.507812 L 83.292969 45.117188 L 106.199219 45.117188 L 106.199219 98.898438 L 37.480469 98.898438 L 37.480469 45.117188 L 60.386719 45.117188 L 60.386719 37.507812 L 37.480469 37.507812 C 33.265625 37.507812 29.847656 40.9375 29.847656 45.171875 L 29.847656 98.839844 C 29.847656 103.074219 33.265625 106.507812 37.480469 106.507812 L 106.199219 106.507812 C 110.417969 106.507812 113.835938 103.074219 113.835938 98.839844 L 113.835938 45.171875 C 113.835938 40.9375 110.417969 37.507812 106.199219 37.507812 Z M 106.199219 37.507812 " fill-opacity="1" fill-rule="nonzero"/></g></svg>