<svg xmlns="http://www.w3.org/2000/svg" xmlns:xlink="http://www.w3.org/1999/xlink" width="192" zoomAndPan="magnify" viewBox="0 0 144 143.999998" height="192" preserveAspectRatio="xMidYMid meet" version="1.0"><defs><clipPath id="b9652b1883"><path d="M 36.179688 33.160156 L 108.179688 33.160156 L 108.179688 110.832031 L 36.179688 110.832031 Z M 36.179688 33.160156 " clip-rule="nonzero"/></clipPath></defs><g clip-path="url(#b9652b1883)"><path fill="#000000" d="M 37.773438 69.195312 L 103.71875 33.195312 C 104.648438 32.691406 105.777344 32.710938 106.679688 33.25 C 107.59375 33.789062 108.148438 34.773438 108.148438 35.832031 L 108.148438 107.832031 C 108.148438 108.890625 107.59375 109.871094 106.679688 110.410156 C 106.214844 110.691406 105.679688 110.832031 105.152344 110.832031 C 104.65625 110.832031 104.164062 110.703125 103.71875 110.457031 L 37.773438 74.457031 C 36.808594 73.941406 36.210938 72.929688 36.210938 71.832031 C 36.210938 70.730469 36.808594 69.71875 37.773438 69.195312 Z M 37.773438 69.195312 " fill-opacity="1" fill-rule="nonzero"/></g></svg>