<svg xmlns="http://www.w3.org/2000/svg" xmlns:xlink="http://www.w3.org/1999/xlink" width="192" zoomAndPan="magnify" viewBox="0 0 144 143.999998" height="192" preserveAspectRatio="xMidYMid meet" version="1.0"><defs><clipPath id="da4cce49f8"><path d="M 35.816406 32.832031 L 107.816406 32.832031 L 107.816406 110.832031 L 35.816406 110.832031 Z M 35.816406 32.832031 " clip-rule="nonzero"/></clipPath></defs><g clip-path="url(#da4cce49f8)"><path fill="#000000" d="M 106.222656 69.195312 L 40.277344 33.195312 C 39.347656 32.691406 38.222656 32.710938 37.316406 33.25 C 36.40625 33.789062 35.847656 34.773438 35.847656 35.832031 L 35.847656 107.832031 C 35.847656 108.890625 36.40625 109.871094 37.316406 110.410156 C 37.785156 110.691406 38.316406 110.832031 38.84375 110.832031 C 39.34375 110.832031 39.832031 110.703125 40.277344 110.457031 L 106.222656 74.457031 C 107.1875 73.941406 107.785156 72.929688 107.785156 71.832031 C 107.785156 70.730469 107.1875 69.71875 106.222656 69.195312 Z M 106.222656 69.195312 " fill-opacity="1" fill-rule="nonzero"/></g></svg>