<svg xmlns="http://www.w3.org/2000/svg" xmlns:xlink="http://www.w3.org/1999/xlink" width="192" zoomAndPan="magnify" viewBox="0 0 144 143.999998" height="192" preserveAspectRatio="xMidYMid meet" version="1.0"><defs><clipPath id="014e2cce48"><path d="M 33.164062 36.175781 L 110.835938 36.175781 L 110.835938 108.175781 L 33.164062 108.175781 Z M 33.164062 36.175781 " clip-rule="nonzero"/></clipPath></defs><g clip-path="url(#014e2cce48)"><path fill="#000000" d="M 74.796875 37.769531 L 110.796875 103.714844 C 111.300781 104.644531 111.28125 105.773438 110.742188 106.675781 C 110.203125 107.589844 109.21875 108.144531 108.164062 108.144531 L 36.164062 108.144531 C 35.101562 108.144531 34.121094 107.589844 33.582031 106.675781 C 33.300781 106.210938 33.164062 105.675781 33.164062 105.148438 C 33.164062 104.652344 33.289062 104.160156 33.535156 103.714844 L 69.535156 37.769531 C 70.050781 36.804688 71.066406 36.207031 72.164062 36.207031 C 73.261719 36.207031 74.273438 36.804688 74.796875 37.769531 Z M 74.796875 37.769531 " fill-opacity="1" fill-rule="nonzero"/></g></svg>