<svg xmlns="http://www.w3.org/2000/svg" xmlns:xlink="http://www.w3.org/1999/xlink" width="500" zoomAndPan="magnify" viewBox="0 0 375 374.999991" height="500" preserveAspectRatio="xMidYMid meet" version="1.0"><defs><g/><clipPath id="aae371f02b"><path d="M 90.367188 204.6875 L 283.117188 204.6875 L 283.117188 227.1875 L 90.367188 227.1875 Z M 90.367188 204.6875 " clip-rule="nonzero"/></clipPath></defs><g clip-path="url(#aae371f02b)"><path fill="#181818" d="M 90.398438 204.6875 L 90.398438 227.1875 L 283.085938 227.1875 L 283.085938 204.6875 L 90.398438 204.6875 M 282.5 226.605469 L 90.972656 226.605469 L 90.972656 205.257812 L 282.5 205.257812 L 282.5 226.605469 " fill-opacity="1" fill-rule="nonzero"/></g><g fill="#000000" fill-opacity="1"><g transform="translate(107.65143, 219.017856)"><g><path d="M 4.039062 -3.578125 L 4.039062 -2.902344 L 6.75 -2.902344 C 6.535156 -1.597656 5.410156 -0.628906 4.050781 -0.628906 C 2.53125 -0.628906 1.304688 -1.84375 1.304688 -3.375 C 1.304688 -4.90625 2.53125 -6.121094 4.050781 -6.121094 C 5.074219 -6.121094 5.972656 -5.570312 6.433594 -4.734375 L 7.054688 -5.085938 C 6.46875 -6.132812 5.34375 -6.839844 4.050781 -6.839844 C 2.125 -6.839844 0.585938 -5.289062 0.585938 -3.375 C 0.585938 -1.460938 2.125 0.0898438 4.050781 0.0898438 C 5.960938 0.0898438 7.515625 -1.460938 7.515625 -3.375 L 7.515625 -3.578125 Z M 4.039062 -3.578125 "/></g></g></g><g fill="#000000" fill-opacity="1"><g transform="translate(122.715356, 219.017856)"><g><path d="M 1.542969 -0.71875 L 1.542969 -6.75 L 0.820312 -6.75 L 0.820312 0 L 4.050781 0 L 4.050781 -0.71875 Z M 1.542969 -0.71875 "/></g></g></g><g fill="#000000" fill-opacity="1"><g transform="translate(133.841747, 219.017856)"><g><path d="M 4.015625 0.0898438 C 5.941406 0.0898438 7.480469 -1.460938 7.480469 -3.375 C 7.480469 -5.289062 5.941406 -6.839844 4.015625 -6.839844 C 2.105469 -6.839844 0.550781 -5.289062 0.550781 -3.375 C 0.550781 -1.460938 2.105469 0.0898438 4.015625 0.0898438 Z M 4.015625 -0.628906 C 2.496094 -0.628906 1.269531 -1.84375 1.269531 -3.375 C 1.269531 -4.90625 2.496094 -6.121094 4.015625 -6.121094 C 5.546875 -6.121094 6.761719 -4.90625 6.761719 -3.375 C 6.761719 -1.84375 5.546875 -0.628906 4.015625 -0.628906 Z M 4.015625 -0.628906 "/></g></g></g><g fill="#000000" fill-opacity="1"><g transform="translate(148.860675, 219.017856)"><g><path d="M 4.152344 -3.421875 C 4.746094 -3.691406 5.140625 -4.230469 5.140625 -4.949219 C 5.140625 -6.007812 4.308594 -6.75 3.273438 -6.75 L 0.820312 -6.75 L 0.820312 0 L 3.511719 0 C 4.535156 0 5.355469 -0.730469 5.355469 -1.777344 C 5.355469 -2.597656 4.859375 -3.183594 4.152344 -3.421875 Z M 4.421875 -4.894531 C 4.421875 -4.230469 3.871094 -3.722656 3.195312 -3.722656 L 1.53125 -3.722656 L 1.53125 -6.03125 L 3.195312 -6.03125 C 3.871094 -6.03125 4.421875 -5.558594 4.421875 -4.894531 Z M 3.421875 -0.71875 L 1.53125 -0.71875 L 1.53125 -3.027344 L 3.421875 -3.027344 C 4.082031 -3.027344 4.636719 -2.519531 4.636719 -1.855469 C 4.636719 -1.191406 4.082031 -0.71875 3.421875 -0.71875 Z M 3.421875 -0.71875 "/></g></g></g><g fill="#000000" fill-opacity="1"><g transform="translate(161.719587, 219.017856)"><g><path d="M 4.894531 0 L 5.679688 0 L 3.238281 -6.75 L 2.441406 -6.75 L 0 0 L 0.789062 0 L 1.339844 -1.574219 L 4.34375 -1.574219 Z M 1.574219 -2.261719 L 2.847656 -5.894531 L 4.105469 -2.261719 Z M 1.574219 -2.261719 "/></g></g></g><g fill="#000000" fill-opacity="1"><g transform="translate(174.375997, 219.017856)"><g><path d="M 1.542969 -0.71875 L 1.542969 -6.75 L 0.820312 -6.75 L 0.820312 0 L 4.050781 0 L 4.050781 -0.71875 Z M 1.542969 -0.71875 "/></g></g></g><g fill="#000000" fill-opacity="1"><g transform="translate(185.502389, 219.017856)"><g/></g></g><g fill="#000000" fill-opacity="1"><g transform="translate(195.18877, 219.017856)"><g><path d="M 4.554688 -6.75 L 0.101562 -6.75 L 0.101562 -6.03125 L 1.96875 -6.03125 L 1.96875 0 L 2.6875 0 L 2.6875 -6.03125 L 4.554688 -6.03125 Z M 4.554688 -6.75 "/></g></g></g><g fill="#000000" fill-opacity="1"><g transform="translate(206.821414, 219.017856)"><g><path d="M 3.554688 -3.082031 C 4.445312 -3.207031 5.117188 -3.949219 5.117188 -4.859375 C 5.117188 -5.917969 4.273438 -6.75 3.238281 -6.75 L 0.820312 -6.75 L 0.820312 0 L 1.542969 0 L 1.542969 -3.046875 L 2.8125 -3.046875 L 4.726562 0 L 5.546875 0 Z M 1.542969 -3.734375 L 1.542969 -6.03125 L 3.195312 -6.03125 C 3.871094 -6.03125 4.398438 -5.558594 4.398438 -4.882812 C 4.398438 -4.195312 3.882812 -3.734375 3.195312 -3.734375 Z M 1.542969 -3.734375 "/></g></g></g><g fill="#000000" fill-opacity="1"><g transform="translate(219.444075, 219.017856)"><g><path d="M 4.566406 -6.050781 L 4.566406 -6.75 L 0.878906 -6.75 L 0.878906 0 L 4.566406 0 L 4.566406 -0.699219 L 1.597656 -0.699219 L 1.597656 -3.027344 L 4.183594 -3.027344 L 4.183594 -3.722656 L 1.597656 -3.722656 L 1.597656 -6.050781 Z M 4.566406 -6.050781 "/></g></g></g><g fill="#000000" fill-opacity="1"><g transform="translate(231.661729, 219.017856)"><g><path d="M 5.671875 -6.75 L 5.671875 -1.203125 L 1.496094 -6.75 L 0.820312 -6.75 L 0.820312 0 L 1.542969 0 L 1.542969 -5.546875 L 5.703125 0 L 6.378906 0 L 6.378906 -6.75 Z M 5.671875 -6.75 "/></g></g></g><g fill="#000000" fill-opacity="1"><g transform="translate(245.836895, 219.017856)"><g><path d="M 0.820312 0 L 2.667969 0 C 4.523438 0 6.042969 -1.507812 6.042969 -3.375 C 6.042969 -5.242188 4.523438 -6.75 2.667969 -6.75 L 0.820312 -6.75 Z M 1.53125 -0.71875 L 1.53125 -6.03125 L 2.65625 -6.03125 C 4.152344 -6.03125 5.320312 -4.894531 5.320312 -3.375 C 5.320312 -1.855469 4.152344 -0.71875 2.65625 -0.71875 Z M 1.53125 -0.71875 "/></g></g></g><g fill="#000000" fill-opacity="1"><g transform="translate(259.404552, 219.017856)"><g><path d="M 2.519531 0.0898438 C 3.667969 0.0898438 4.601562 -0.597656 4.601562 -1.777344 C 4.601562 -4.074219 1.316406 -3.511719 1.316406 -5.117188 C 1.316406 -5.792969 1.867188 -6.121094 2.496094 -6.121094 C 3.015625 -6.121094 3.441406 -5.90625 3.710938 -5.523438 L 4.273438 -5.996094 C 3.902344 -6.46875 3.25 -6.839844 2.476562 -6.839844 C 1.441406 -6.839844 0.597656 -6.164062 0.597656 -5.0625 C 0.597656 -2.890625 3.882812 -3.429688 3.882812 -1.753906 C 3.882812 -1.035156 3.285156 -0.628906 2.53125 -0.628906 C 1.765625 -0.628906 1.214844 -1.046875 0.980469 -1.664062 L 0.328125 -1.28125 C 0.675781 -0.449219 1.519531 0.0898438 2.519531 0.0898438 Z M 2.519531 0.0898438 "/></g></g></g><g fill="#181818" fill-opacity="1"><g transform="translate(79.140622, 192.772766)"><g><path d="M 4.203125 0 L 0.515625 -34.359375 L 7.234375 -34.359375 L 9.15625 -12.6875 L 11.078125 -34.359375 L 17.484375 -34.359375 L 19.3125 -12.6875 L 21.15625 -34.359375 L 27.953125 -34.359375 L 24.203125 0 L 15.953125 0 L 14.234375 -16.5625 L 12.59375 0 Z M 4.203125 0 "/></g></g></g><g fill="#181818" fill-opacity="1"><g transform="translate(108.617788, 192.772766)"><g><path d="M 1.515625 0 L 1.515625 -34.359375 L 8.359375 -34.359375 L 8.359375 -22.078125 L 11.59375 -22.078125 L 11.59375 -34.359375 L 18.4375 -34.359375 L 18.4375 0 L 11.59375 0 L 11.59375 -15.59375 L 8.359375 -15.59375 L 8.359375 0 Z M 1.515625 0 "/></g></g></g><g fill="#181818" fill-opacity="1"><g transform="translate(129.575801, 192.772766)"><g><path d="M 0.59375 0 L 3.921875 -34.359375 L 15.5625 -34.359375 L 18.84375 0 L 12.3125 0 L 11.84375 -5.5625 L 7.6875 -5.5625 L 7.28125 0 Z M 8.203125 -11.046875 L 11.3125 -11.046875 L 9.796875 -28.515625 L 9.484375 -28.515625 Z M 8.203125 -11.046875 "/></g></g></g><g fill="#181818" fill-opacity="1"><g transform="translate(149.97388, 192.772766)"><g><path d="M 4.484375 0 L 4.484375 -27.765625 L 0.40625 -27.765625 L 0.40625 -34.359375 L 15.4375 -34.359375 L 15.4375 -27.765625 L 11.359375 -27.765625 L 11.359375 0 Z M 4.484375 0 "/></g></g></g><g fill="#181818" fill-opacity="1"><g transform="translate(166.812304, 192.772766)"><g><path d="M 9.6875 0.3125 C 6.5625 0.3125 4.304688 -0.457031 2.921875 -2 C 1.535156 -3.539062 0.84375 -6.035156 0.84375 -9.484375 L 0.84375 -12.84375 L 7.59375 -12.84375 L 7.59375 -8.5625 C 7.59375 -6.851562 8.140625 -6 9.234375 -6 C 9.847656 -6 10.273438 -6.175781 10.515625 -6.53125 C 10.753906 -6.894531 10.875 -7.503906 10.875 -8.359375 C 10.875 -9.484375 10.738281 -10.410156 10.46875 -11.140625 C 10.207031 -11.867188 9.867188 -12.476562 9.453125 -12.96875 C 9.046875 -13.46875 8.304688 -14.238281 7.234375 -15.28125 L 4.28125 -18.234375 C 1.988281 -20.472656 0.84375 -22.957031 0.84375 -25.6875 C 0.84375 -28.613281 1.515625 -30.84375 2.859375 -32.375 C 4.203125 -33.914062 6.171875 -34.6875 8.765625 -34.6875 C 11.859375 -34.6875 14.082031 -33.863281 15.4375 -32.21875 C 16.800781 -30.582031 17.484375 -28.015625 17.484375 -24.515625 L 10.484375 -24.515625 L 10.4375 -26.875 C 10.4375 -27.332031 10.3125 -27.691406 10.0625 -27.953125 C 9.8125 -28.222656 9.457031 -28.359375 9 -28.359375 C 8.46875 -28.359375 8.066406 -28.210938 7.796875 -27.921875 C 7.535156 -27.628906 7.40625 -27.226562 7.40625 -26.71875 C 7.40625 -25.601562 8.039062 -24.441406 9.3125 -23.234375 L 13.3125 -19.40625 C 14.25 -18.5 15.023438 -17.632812 15.640625 -16.8125 C 16.253906 -16 16.75 -15.039062 17.125 -13.9375 C 17.5 -12.832031 17.6875 -11.519531 17.6875 -10 C 17.6875 -6.613281 17.0625 -4.046875 15.8125 -2.296875 C 14.570312 -0.554688 12.53125 0.3125 9.6875 0.3125 Z M 9.6875 0.3125 "/></g></g></g><path stroke-linecap="butt" transform="matrix(0.75, 0, 0, 0.75, 189.749992, 149.272769)" fill="none" stroke-linejoin="miter" d="M 12.640636 58.427979 C 8.875011 58.427979 6.078136 57.360271 4.244803 55.224854 C 2.411469 53.089437 1.494802 49.927978 1.494802 45.73527 L 1.494802 12.193601 L 10.401053 12.193601 L 10.401053 45.355062 C 10.401053 46.813395 10.541678 47.959228 10.81772 48.782145 C 11.104178 49.599853 11.713553 50.006103 12.640636 50.006103 C 13.562512 50.006103 14.166678 49.605062 14.453137 48.808187 C 14.739595 48.000895 14.88022 46.849853 14.88022 45.355062 L 14.88022 12.193601 L 23.786471 12.193601 L 23.786471 45.73527 C 23.786471 49.927978 22.869804 53.089437 21.041679 55.224854 C 19.208345 57.360271 16.41147 58.427979 12.640636 58.427979 Z M 28.640637 12.193601 L 40.739597 12.193601 C 44.401055 12.193601 47.015639 13.375893 48.578139 15.735268 C 50.145847 18.099851 50.932306 21.558185 50.932306 26.115477 C 50.932306 30.662352 50.239597 34.089436 48.848972 36.401936 C 47.458347 38.709228 44.973972 39.865478 41.390638 39.865478 L 37.651055 39.865478 L 37.651055 58.000896 L 28.640637 58.000896 Z M 38.187513 31.594644 C 39.286472 31.594644 40.093763 31.391519 40.609388 30.985269 C 41.130222 30.573811 41.468763 29.990477 41.625013 29.224852 C 41.781263 28.464435 41.859388 27.370685 41.859388 25.943602 C 41.859388 24.026935 41.645847 22.641518 41.218763 21.79256 C 40.79168 20.938393 39.942722 20.516518 38.66668 20.516518 L 37.651055 20.516518 L 37.651055 31.594644 Z M 38.187513 31.594644 " stroke="#000000" stroke-width="0.666666" stroke-opacity="1" stroke-miterlimit="4"/></svg>